<svg style="display: none;" xmlns="http://www.w3.org/2000/svg">
   <symbol id="vk" viewBox="0 0 29 25">
      <path
         d="M14.9254 19.8286C7.44463 19.8286 3.17779 14.6377 3 6H6.74722C6.8703 12.3398 9.63278 15.0253 11.8209 15.5789V6H15.3495V11.4678C17.5103 11.2324 19.7802 8.7408 20.5461 6H24.0745C23.4865 9.37755 21.0248 11.8692 19.2743 12.8935C21.0248 13.7241 23.8285 15.8973 24.8952 19.8286H21.0111C20.1769 17.1985 18.0983 15.1637 15.3495 14.8868V19.8286H14.9254Z" />
   </symbol>
   <symbol id="telegram" viewBox="0 0 29 25">
      <path
         d="M23.9264 4.05634C23.819 4.08678 21.8059 4.89902 19.4529 5.86139C17.0998 6.82371 13.056 8.47746 10.4667 9.53633C7.87726 10.5953 5.66091 11.5127 5.54143 11.5751C5.30389 11.6992 5.05208 11.9599 5.01301 12.1222C4.94831 12.3911 5.12979 12.7335 5.45083 12.9481C5.6674 13.093 10.0121 14.6423 10.1219 14.6138C10.158 14.6045 12.7406 12.9064 15.8611 10.8402C18.9816 8.77399 21.5835 7.06574 21.6432 7.04407C21.794 6.98928 21.996 7.01722 22.0456 7.09976C22.157 7.28536 22.3657 7.08118 15.2242 13.7729C13.0185 15.8397 12.8592 15.9977 12.9207 16.0594C12.957 16.0958 14.6042 17.4154 16.5812 18.9918C19.2652 21.132 20.2252 21.876 20.371 21.9288C20.6547 22.0314 20.9917 22.0225 21.2306 21.906C21.4153 21.8159 21.6997 21.5401 21.7908 21.3625C21.835 21.2765 25.0014 4.68315 25 4.54533C24.9982 4.37357 24.8567 4.13314 24.7167 4.06384C24.5506 3.98171 24.2016 3.97841 23.9264 4.05634Z" />
   </symbol>
   <symbol id="whatsapp" viewBox="0 0 29 25">
      <path
         d="M13.1783 1.06863C7.86122 1.72167 3.68241 5.96027 3.13214 11.2586C3.0506 12.0438 3.09999 13.5306 3.23261 14.281C3.44252 15.4693 3.78987 16.5148 4.32975 17.5831L4.60102 18.12L3.79272 21.0541C3.34814 22.6679 2.99151 23.9935 3.00015 23.9999C3.00884 24.0062 4.36287 23.6578 6.00912 23.2256C8.40569 22.5963 9.02634 22.4488 9.123 22.4854C9.18938 22.5105 9.50438 22.6486 9.82301 22.7922C10.8579 23.2586 11.9446 23.5679 13.0882 23.7216C13.8829 23.8284 15.2777 23.8278 16.0508 23.7202C18.5883 23.3672 20.8553 22.2521 22.6422 20.4779C23.5766 19.5502 24.1979 18.7016 24.7895 17.5454C25.3221 16.5042 25.698 15.3691 25.908 14.1672C26.0308 13.4648 26.0306 11.4006 25.9077 10.6645C25.7001 9.42082 25.3796 8.4272 24.8321 7.32969C23.2738 4.20645 20.3963 1.98006 16.9557 1.23566C15.8831 1.00361 14.2836 0.932887 13.1783 1.06863ZM16.1956 3.05454C17.5805 3.30908 18.7288 3.7689 19.8647 4.52362C21.8038 5.81215 23.2312 7.81302 23.7954 10.0335C24.2097 11.6641 24.1772 13.5162 23.7065 15.0842C22.9457 17.6194 21.1321 19.7534 18.7589 20.9061C17.3792 21.5762 16.1025 21.8684 14.5542 21.8684C12.7796 21.8684 11.2065 21.4405 9.60099 20.5208L9.33064 20.366L7.55389 20.83C6.57667 21.0852 5.76972 21.2866 5.76064 21.2776C5.75156 21.2686 5.95206 20.5086 6.20619 19.5887C6.46027 18.6689 6.67004 17.8824 6.6723 17.8411C6.67457 17.7997 6.54963 17.5608 6.39466 17.3101C4.11782 13.6271 4.71457 8.77003 7.8213 5.69828C9.3667 4.17028 11.3232 3.23126 13.5162 2.96495C14.1085 2.89303 15.5855 2.9424 16.1956 3.05454ZM10.0474 7.24121C9.76817 7.37859 9.25803 7.97741 9.04474 8.41813C8.62579 9.28383 8.63433 10.3751 9.06796 11.3856C9.60084 12.6273 10.9951 14.3904 12.3715 15.5629C13.3362 16.3847 14.1423 16.8663 15.3266 17.3283C16.5364 17.8002 16.7685 17.8545 17.5715 17.8542C18.2031 17.854 18.3033 17.842 18.597 17.732C19.0799 17.5512 19.4403 17.3235 19.7993 16.9722C20.0778 16.6996 20.1339 16.6143 20.2251 16.3244C20.3389 15.963 20.4039 15.3813 20.353 15.1799C20.3264 15.0746 20.19 14.9892 19.5042 14.6479C18.2475 14.0225 17.741 13.8073 17.5257 13.8073C17.3494 13.8073 17.3193 13.8288 17.1061 14.1072C16.6186 14.7436 16.1713 15.2365 16.0548 15.2655C15.9152 15.3003 15.6409 15.2005 15.0075 14.8843C13.9819 14.3724 13.1452 13.6878 12.4258 12.7721C12.0343 12.2738 11.6817 11.7059 11.6817 11.5736C11.6817 11.5169 11.8632 11.2352 12.0851 10.9476C12.5199 10.3838 12.6472 10.1735 12.6472 10.0186C12.6472 9.96432 12.5529 9.69874 12.4377 9.4285C12.3225 9.15821 12.0901 8.60243 11.9212 8.19338C11.712 7.68639 11.565 7.39999 11.4597 7.2937L11.3051 7.13776L10.7813 7.13781C10.3422 7.13781 10.2235 7.15456 10.0474 7.24121Z" />
   </symbol>
   <symbol id="youtube" viewBox="0 0 29 25">
      <path
         d="M11.9788 2.00994C7.11958 2.16107 4.95137 2.3117 3.82601 2.57653C2.95294 2.78197 2.24144 3.18617 1.61114 3.83479C0.944093 4.52115 0.639478 5.11103 0.420941 6.13981C-0.141002 8.78449 -0.140153 15.2101 0.422527 17.8582C0.639875 18.8811 0.954286 19.4896 1.60956 20.1557C2.2659 20.8227 3.0679 21.2518 4.01403 21.4422C5.97593 21.8367 12.714 22.0992 17.4153 21.9641C22.0152 21.832 24.3567 21.654 25.4002 21.357C26.7937 20.9604 27.8999 19.9436 28.3755 18.622C29.0985 16.6126 29.225 9.2854 28.59 6.20154C28.3623 5.09587 27.9345 4.30998 27.2026 3.65237C26.5577 3.07306 25.8502 2.72143 24.9819 2.54881C24.0281 2.35914 21.97 2.18863 19.3973 2.08607C17.9571 2.02868 13.0091 1.97789 11.9788 2.00994ZM17.5285 4.19828C22.0099 4.32541 24.3105 4.51758 25.0228 4.82432C25.591 5.06901 26.0053 5.4822 26.1995 5.99789C26.3496 6.39641 26.4972 7.23406 26.5992 8.26555C26.725 9.53854 26.7434 13.9848 26.6283 15.3252C26.4944 16.8851 26.327 17.8117 26.1033 18.2309C25.8165 18.7684 25.2403 19.1818 24.5736 19.3282C22.9864 19.6768 16.2053 19.9241 11.6956 19.7976C8.05115 19.6955 5.51654 19.53 4.51713 19.3291C3.47615 19.1198 2.86392 18.5024 2.64074 17.437C2.14149 15.0536 2.14149 8.93686 2.64074 6.55349C2.76182 5.97548 2.96421 5.58205 3.31085 5.25083C3.84957 4.73601 4.34905 4.5962 6.18796 4.44551C9.23275 4.19595 13.8768 4.09475 17.5285 4.19828ZM11.6107 16.3935L19.4688 11.9856C19.4688 11.9856 19.4688 11.9856 11.6107 7.6048V16.3935Z" />
   </symbol>
   <symbol id="instagram" viewBox="0 0 29 25">
      <path
         d="M14.5635 9.39444C13.723 9.39444 12.9169 9.72832 12.3226 10.3226C11.7283 10.9169 11.3944 11.723 11.3944 12.5635C11.3944 13.404 11.7283 14.21 12.3226 14.8043C12.9169 15.3987 13.723 15.7325 14.5635 15.7325C15.404 15.7325 16.21 15.3987 16.8043 14.8043C17.3987 14.21 17.7325 13.404 17.7325 12.5635C17.7325 11.723 17.3987 10.9169 16.8043 10.3226C16.21 9.72832 15.404 9.39444 14.5635 9.39444ZM14.5635 7.28175C15.9643 7.28175 17.3077 7.83821 18.2982 8.82873C19.2888 9.81925 19.8452 11.1627 19.8452 12.5635C19.8452 13.9643 19.2888 15.3077 18.2982 16.2982C17.3077 17.2888 15.9643 17.8452 14.5635 17.8452C13.1627 17.8452 11.8193 17.2888 10.8287 16.2982C9.83821 15.3077 9.28175 13.9643 9.28175 12.5635C9.28175 11.1627 9.83821 9.81925 10.8287 8.82873C11.8193 7.83821 13.1627 7.28175 14.5635 7.28175V7.28175ZM21.4298 7.01766C21.4298 7.36786 21.2906 7.70372 21.043 7.95135C20.7954 8.19898 20.4595 8.33809 20.1093 8.33809C19.7591 8.33809 19.4233 8.19898 19.1756 7.95135C18.928 7.70372 18.7889 7.36786 18.7889 7.01766C18.7889 6.66746 18.928 6.3316 19.1756 6.08397C19.4233 5.83634 19.7591 5.69722 20.1093 5.69722C20.4595 5.69722 20.7954 5.83634 21.043 6.08397C21.2906 6.3316 21.4298 6.66746 21.4298 7.01766V7.01766ZM14.5635 4.1127C11.9501 4.1127 11.5233 4.12009 10.3075 4.17397C9.47928 4.21305 8.92364 4.32397 8.40814 4.52467C7.94969 4.70214 7.61905 4.91447 7.26729 5.26729C6.93666 5.58673 6.68244 5.97671 6.52362 6.40814C6.32291 6.92576 6.21199 7.48034 6.17397 8.30746C6.11904 9.47367 6.1127 9.88142 6.1127 12.5635C6.1127 15.1769 6.12009 15.6037 6.17397 16.8195C6.21305 17.6466 6.32397 18.2033 6.52362 18.7178C6.7032 19.1773 6.91447 19.5079 7.26517 19.8586C7.62116 20.2136 7.9518 20.4259 8.40603 20.6013C8.92787 20.803 9.48351 20.915 10.3075 20.953C11.4737 21.0079 11.8814 21.0143 14.5635 21.0143C17.1769 21.0143 17.6037 21.0069 18.8195 20.953C19.6456 20.9139 20.2023 20.803 20.7178 20.6034C21.1752 20.4248 21.5079 20.2125 21.8586 19.8618C22.2146 19.5058 22.427 19.1752 22.6023 18.721C22.803 18.2002 22.915 17.6435 22.953 16.8195C23.0079 15.6533 23.0143 15.2456 23.0143 12.5635C23.0143 9.95008 23.0069 9.52332 22.953 8.30746C22.9139 7.4814 22.803 6.92364 22.6023 6.40814C22.4431 5.97716 22.1894 5.58732 21.8597 5.26729C21.5404 4.93649 21.1504 4.68225 20.7188 4.52362C20.2012 4.32291 19.6456 4.212 18.8195 4.17397C17.6533 4.11904 17.2456 4.1127 14.5635 4.1127ZM14.5635 2C17.4336 2 17.7917 2.01056 18.9178 2.06338C20.0428 2.1162 20.8086 2.29261 21.4826 2.55458C22.1798 2.8229 22.7671 3.18628 23.3544 3.77255C23.8916 4.30062 24.3072 4.93939 24.5724 5.6444C24.8333 6.3173 25.0108 7.08421 25.0636 8.20922C25.1132 9.33529 25.127 9.69339 25.127 12.5635C25.127 15.4336 25.1164 15.7917 25.0636 16.9178C25.0108 18.0428 24.8333 18.8086 24.5724 19.4826C24.308 20.188 23.8922 20.8269 23.3544 21.3544C22.8262 21.8914 22.1875 22.307 21.4826 22.5724C20.8097 22.8333 20.0428 23.0108 18.9178 23.0636C17.7917 23.1133 17.4336 23.127 14.5635 23.127C11.6934 23.127 11.3353 23.1164 10.2092 23.0636C9.08421 23.0108 8.31835 22.8333 7.6444 22.5724C6.93911 22.3078 6.30023 21.8921 5.77255 21.3544C5.2353 20.8265 4.81965 20.1877 4.55458 19.4826C4.29261 18.8097 4.1162 18.0428 4.06338 16.9178C4.01373 15.7917 4 15.4336 4 12.5635C4 9.69339 4.01056 9.33529 4.06338 8.20922C4.1162 7.08315 4.29261 6.31836 4.55458 5.6444C4.81892 4.93895 5.23466 4.30001 5.77255 3.77255C6.30038 3.23512 6.93922 2.81944 7.6444 2.55458C8.31835 2.29261 9.08315 2.1162 10.2092 2.06338C11.3353 2.01373 11.6934 2 14.5635 2Z" />
   </symbol>
   <symbol id="heart" viewBox="0 0 26 26">
      <path
         d="M13.0004 4.90639C15.5452 2.62164 19.4777 2.69748 21.9293 5.15339C24.3798 7.61039 24.4643 11.5234 22.1849 14.0757L12.9983 23.2754L3.81377 14.0757C1.53444 11.5234 1.62002 7.60389 4.06944 5.15339C6.52319 2.70073 10.4481 2.61839 13.0004 4.90639ZM20.3953 6.68414C18.7703 5.05698 16.1486 4.9909 14.4478 6.51839L13.0015 7.81623L11.5542 6.51948C9.84794 4.98981 7.23169 5.05698 5.60236 6.68631C3.98819 8.30048 3.90694 10.8842 5.39436 12.5916L12.9994 20.2085L20.6044 12.5926C22.0929 10.8842 22.0116 8.30373 20.3953 6.68414Z" />
   </symbol>
   <symbol id="serch" viewBox="0 0 24 24">
      <path
         d="M18.033 16.617L22.316 20.899L20.901 22.314L16.619 18.031C15.0257 19.3082 13.044 20.0029 11.002 20C6.03395 20 2.00195 15.968 2.00195 11C2.00195 6.032 6.03395 2 11.002 2C15.97 2 20.002 6.032 20.002 11C20.0049 13.042 19.3102 15.0237 18.033 16.617ZM16.027 15.875C17.2961 14.5699 18.0048 12.8204 18.002 11C18.002 7.132 14.869 4 11.002 4C7.13395 4 4.00195 7.132 4.00195 11C4.00195 14.867 7.13395 18 11.002 18C12.8224 18.0029 14.5718 17.2941 15.877 16.025L16.027 15.875Z" />
   </symbol>
   <symbol id="phone" viewBox="0 0 20 20">
      <path
         d="M17.5004 13.6833C17.5002 13.6833 17.5 13.6835 17.5 13.6838V16.63C17.5001 16.841 17.4202 17.0441 17.2763 17.1985C17.1325 17.3528 16.9355 17.4469 16.725 17.4617C16.3608 17.4867 16.0633 17.5 15.8333 17.5C8.46917 17.5 2.5 11.5308 2.5 4.16667C2.5 3.93667 2.5125 3.63917 2.53833 3.275C2.5531 3.06454 2.64715 2.86751 2.8015 2.72367C2.95585 2.57984 3.15902 2.4999 3.37 2.5H6.31667C6.42003 2.4999 6.51975 2.53822 6.59644 2.60752C6.67313 2.67682 6.72133 2.77215 6.73167 2.875C6.75083 3.06667 6.76833 3.21917 6.785 3.335C6.95061 4.49077 7.29 5.61486 7.79167 6.66917C7.87083 6.83583 7.81917 7.035 7.66917 7.14167L7.18105 7.49045C6.41614 8.03702 6.11879 9.05445 6.61299 9.8542C7.50046 11.2904 8.71079 12.5007 10.147 13.3881C10.9466 13.8821 11.9638 13.585 12.5105 12.8204L12.8575 12.335C12.91 12.2617 12.9865 12.2091 13.0737 12.1864C13.161 12.1637 13.2535 12.1723 13.335 12.2108C14.3892 12.7116 15.513 13.0501 16.6683 13.215C16.7842 13.2317 16.9367 13.25 17.1267 13.2683C17.2294 13.2789 17.3245 13.3271 17.3936 13.4038C17.4627 13.4804 17.5009 13.5798 17.5008 13.6829C17.5008 13.6831 17.5006 13.6833 17.5004 13.6833Z" />
   </symbol>
   <symbol id="burger" viewBox="0 0 29 30">
      <path
         d="M3.625 6.25C3.625 5.55964 4.16599 5 4.83333 5H24.1667C24.834 5 25.375 5.55964 25.375 6.25C25.375 6.94036 24.834 7.5 24.1667 7.5H4.83333C4.16599 7.5 3.625 6.94036 3.625 6.25ZM3.625 15C3.625 14.3096 4.16599 13.75 4.83333 13.75H24.1667C24.834 13.75 25.375 14.3096 25.375 15C25.375 15.6904 24.834 16.25 24.1667 16.25H4.83333C4.16599 16.25 3.625 15.6904 3.625 15ZM3.625 23.75C3.625 23.0596 4.16599 22.5 4.83333 22.5H24.1667C24.834 22.5 25.375 23.0596 25.375 23.75C25.375 24.4404 24.834 25 24.1667 25H4.83333C4.16599 25 3.625 24.4404 3.625 23.75Z" />
   </symbol>
   <symbol id="x" viewBox="0 0 30 30">
      <path
         d="M14.9999 13.2329L21.1874 7.04541L22.9549 8.81291L16.7674 15.0004L22.9549 21.1879L21.1874 22.9554L14.9999 16.7679L8.81242 22.9554L7.04492 21.1879L13.2324 15.0004L7.04492 8.81291L8.81242 7.04541L14.9999 13.2329Z" />
   </symbol>
   <symbol id="map" viewBox="0 0 20 20">
      <path
         d="M3.33366 5.11922V15.8059L7.55449 13.9975L12.5545 16.4975L16.667 14.7334V4.04755L17.7528 3.58255C17.8162 3.55537 17.8854 3.54436 17.9541 3.5505C18.0228 3.55665 18.0889 3.57976 18.1465 3.61776C18.2041 3.65575 18.2513 3.70745 18.284 3.76822C18.3167 3.82898 18.3337 3.8969 18.3337 3.96588V15.8334L12.5003 18.3334L7.50033 15.8334L2.24783 18.0842C2.18442 18.1114 2.11526 18.1224 2.04655 18.1163C1.97784 18.1101 1.91172 18.087 1.85415 18.049C1.79657 18.011 1.74933 17.9593 1.71666 17.8985C1.684 17.8378 1.66693 17.7699 1.66699 17.7009V5.83338L3.33366 5.11922ZM13.5362 9.36922L10.0003 12.9042L6.46449 9.36922C5.76531 8.66992 5.28919 7.779 5.09634 6.80912C4.90348 5.83924 5.00255 4.83395 5.38101 3.92037C5.75947 3.00679 6.40033 2.22595 7.22256 1.67658C8.04479 1.12721 9.01145 0.833984 10.0003 0.833984C10.9892 0.833984 11.9559 1.12721 12.7781 1.67658C13.6003 2.22595 14.2412 3.00679 14.6196 3.92037C14.9981 4.83395 15.0972 5.83924 14.9043 6.80912C14.7115 7.779 14.2353 8.66992 13.5362 9.36922V9.36922ZM10.0003 10.5475L12.357 8.19005C12.8233 7.72391 13.1408 7.12997 13.2695 6.48334C13.3982 5.83671 13.3323 5.16644 13.08 4.55729C12.8278 3.94815 12.4005 3.42749 11.8523 3.06118C11.3041 2.69486 10.6596 2.49934 10.0003 2.49934C9.34101 2.49934 8.69651 2.69486 8.14832 3.06118C7.60013 3.42749 7.17289 3.94815 6.92063 4.55729C6.66837 5.16644 6.60242 5.83671 6.73111 6.48334C6.85981 7.12997 7.17738 7.72391 7.64366 8.19005L10.0003 10.5475Z" />
   </symbol>
   
   <symbol id="catalog" viewBox="0 0 20 20">
      <path
         d="M6.66667 3.33341H17.5V5.00008H6.66667V3.33341ZM2.5 2.91675H5V5.41675H2.5V2.91675ZM2.5 8.75008H5V11.2501H2.5V8.75008ZM2.5 14.5834H5V17.0834H2.5V14.5834ZM6.66667 9.16675H17.5V10.8334H6.66667V9.16675ZM6.66667 15.0001H17.5V16.6668H6.66667V15.0001Z" />
   </symbol>
   
   <symbol id="main" viewBox="0 0 20 20">
      <path
         d="M15.833 17.5001H4.16634C3.94533 17.5001 3.73337 17.4123 3.57709 17.256C3.42081 17.0997 3.33301 16.8878 3.33301 16.6668V9.16676H0.833008L9.43884 1.34343C9.59227 1.20383 9.79224 1.12646 9.99967 1.12646C10.2071 1.12646 10.4071 1.20383 10.5605 1.34343L19.1663 9.16676H16.6663V16.6668C16.6663 16.8878 16.5785 17.0997 16.4223 17.256C16.266 17.4123 16.054 17.5001 15.833 17.5001ZM10.833 15.8334H14.9997V7.63093L9.99967 3.08593L4.99967 7.63093V15.8334H9.16634V10.8334H10.833V15.8334Z" />
   </symbol>
</svg>

